<?xml version="1.0" encoding="utf-8"?>
<!-- Generator: Adobe Illustrator 16.0.0, SVG Export Plug-In . SVG Version: 6.00 Build 0)  -->
<!DOCTYPE svg PUBLIC "-//W3C//DTD SVG 1.1//EN" "http://www.w3.org/Graphics/SVG/1.1/DTD/svg11.dtd">
<svg version="1.1" id="Layer_1" xmlns="http://www.w3.org/2000/svg" xmlns:xlink="http://www.w3.org/1999/xlink" x="0px" y="0px"
	 width="242.334px" height="93.5px" viewBox="0 0 242.334 93.5" enable-background="new 0 0 242.334 93.5" xml:space="preserve">
<g>
	<path fill="#CACACA" d="M39.737,57.286L32.22,34.774c-0.336-1.036-0.603-1.925-0.798-2.667c-0.196-0.742-0.322-1.365-0.378-1.869
		c-0.477,0.028-0.918,0.049-1.323,0.063c-0.406,0.015-0.792,0.036-1.155,0.063v-2.772h11.676v2.311
		c-1.232,0-2.064,0.252-2.499,0.756s-0.455,1.456-0.063,2.856c0.42,1.68,0.867,3.304,1.344,4.871
		c0.476,1.569,0.938,3.165,1.386,4.788c0.309,1.064,0.595,2.052,0.861,2.961c0.266,0.91,0.553,2.037,0.861,3.382h0.084
		c0.111-0.421,0.266-0.994,0.462-1.723c0.195-0.728,0.412-1.483,0.65-2.268s0.448-1.505,0.631-2.163
		c0.182-0.657,0.314-1.141,0.398-1.449c0.56-1.791,1.113-3.549,1.659-5.271c0.546-1.723,1.063-3.36,1.554-4.914
		c0.49-1.555,0.917-2.947,1.281-4.18h2.94c0.363,1.177,0.756,2.43,1.176,3.76s0.854,2.688,1.302,4.073
		c0.447,1.387,0.882,2.745,1.302,4.074c0.42,1.33,0.812,2.556,1.176,3.675c0.337,1.064,0.651,2.143,0.945,3.234
		s0.581,2.198,0.861,3.318h0.084c0.252-0.868,0.511-1.778,0.776-2.73c0.267-0.951,0.553-1.932,0.861-2.939
		c0.363-1.177,0.686-2.24,0.966-3.192c0.28-0.951,0.539-1.827,0.777-2.625c0.237-0.798,0.455-1.554,0.651-2.269
		c0.195-0.714,0.392-1.42,0.588-2.12c0.168-0.616,0.384-1.253,0.65-1.911c0.266-0.658,0.581-1.211,0.945-1.659
		c-0.477,0.028-1.043,0.049-1.701,0.063c-0.658,0.015-1.183,0.036-1.575,0.063v-2.772h9.156v2.311
		c-0.729,0.057-1.365,0.23-1.911,0.524s-1.043,0.799-1.491,1.513s-0.882,1.729-1.302,3.045c-1.176,3.752-2.352,7.483-3.527,11.192
		c-1.177,3.711-2.367,7.413-3.57,11.109h-2.898L50.573,41.2c-0.309-0.979-0.581-1.932-0.818-2.856
		c-0.238-0.924-0.483-1.819-0.735-2.688c-0.168,0.868-0.357,1.708-0.567,2.52c-0.21,0.813-0.44,1.653-0.692,2.521l-5.208,16.59
		H39.737z"/>
	<path fill="#CACACA" d="M67.962,56.992v-2.394c0.783,0,1.413-0.225,1.89-0.673c0.477-0.447,0.868-1.042,1.177-1.784
		c0.308-0.742,0.63-1.575,0.966-2.499l8.357-22.807h2.269l9.114,23.227c0.168,0.477,0.392,1.148,0.672,2.016
		c0.279,0.868,0.434,1.624,0.462,2.268c0.476-0.027,0.938-0.056,1.386-0.084c0.447-0.027,0.84-0.042,1.176-0.042v2.772H84.72v-2.31
		c0.868,0,1.456-0.183,1.765-0.547c0.308-0.363,0.44-0.84,0.398-1.428s-0.188-1.189-0.44-1.806l-1.051-2.856l-9.744,0.168
		l-0.924,2.814c-0.168,0.477-0.364,1.015-0.588,1.617c-0.225,0.603-0.448,1.141-0.672,1.616c0.504-0.027,1.057-0.056,1.659-0.084
		c0.602-0.027,1.085-0.042,1.449-0.042v2.856H67.962z M76.572,45.526h7.896L82.2,39.352c-0.336-0.952-0.651-1.911-0.945-2.877
		c-0.294-0.967-0.539-1.854-0.735-2.667h-0.084c-0.168,0.56-0.371,1.288-0.608,2.184c-0.238,0.896-0.567,1.918-0.987,3.066
		L76.572,45.526z"/>
	<path fill="#CACACA" d="M97.57,56.992v-2.31c0.784-0.028,1.387-0.161,1.807-0.399c0.42-0.237,0.714-0.657,0.882-1.26
		c0.168-0.602,0.252-1.435,0.252-2.499V33.766c0-0.7,0.021-1.372,0.063-2.017c0.042-0.644,0.077-1.147,0.105-1.512
		c-0.477,0.028-1.022,0.049-1.638,0.063c-0.616,0.015-1.106,0.036-1.471,0.063v-2.772h11.173v2.311
		c-0.757,0.028-1.352,0.161-1.785,0.398c-0.435,0.238-0.735,0.651-0.903,1.239s-0.252,1.428-0.252,2.521v16.716
		c0,0.756-0.015,1.449-0.042,2.079c-0.028,0.63-0.07,1.127-0.126,1.49l6.384-0.042c1.68-0.027,2.982-0.602,3.906-1.722
		c0.924-1.119,1.386-2.855,1.386-5.208h2.353l-0.252,9.618H97.57z"/>
	<path fill="#CACACA" d="M141.839,36.874c0-1.567-0.196-2.862-0.589-3.885c-0.392-1.021-0.973-1.785-1.742-2.289
		c-0.771-0.504-1.743-0.741-2.919-0.714h-2.563v20.748c0,0.756-0.015,1.456-0.042,2.1c-0.028,0.645-0.07,1.148-0.126,1.512
		c0.531-0.027,1.141-0.056,1.827-0.084c0.686-0.027,1.211-0.042,1.575-0.042v2.772h-11.466v-2.31
		c0.783-0.028,1.386-0.168,1.806-0.421c0.42-0.252,0.714-0.672,0.882-1.26s0.252-1.413,0.252-2.478l0.042-20.496h-2.729
		c-1.653,0.028-2.913,0.588-3.78,1.68c-0.868,1.092-1.302,2.814-1.302,5.166h-2.353l0.21-9.282h25.158l0.252,9.282H141.839z"/>
	<path fill="#CACACA" d="M161.368,57.664c-2.66,0-4.929-0.448-6.804-1.344c-1.876-0.896-3.396-2.093-4.558-3.591
		s-2.009-3.157-2.541-4.978c-0.532-1.819-0.798-3.64-0.798-5.46c0-1.764,0.294-3.549,0.882-5.354
		c0.589-1.807,1.491-3.465,2.709-4.978c1.219-1.512,2.752-2.729,4.6-3.653c1.848-0.925,4.018-1.387,6.51-1.387
		c2.548,0,4.753,0.462,6.615,1.387c1.861,0.924,3.388,2.148,4.578,3.675c1.189,1.526,2.071,3.186,2.646,4.977
		c0.574,1.792,0.861,3.57,0.861,5.334c0,1.736-0.294,3.501-0.882,5.292c-0.588,1.792-1.491,3.451-2.709,4.978
		c-1.219,1.526-2.751,2.758-4.6,3.695C166.03,57.195,163.86,57.664,161.368,57.664z M161.704,55.06c1.568,0,2.891-0.364,3.969-1.093
		c1.078-0.728,1.953-1.68,2.625-2.855c0.673-1.176,1.169-2.471,1.491-3.885c0.321-1.414,0.483-2.808,0.483-4.18
		c0-1.875-0.196-3.633-0.588-5.271c-0.393-1.638-0.974-3.072-1.743-4.305c-0.771-1.232-1.743-2.205-2.919-2.92
		c-1.176-0.714-2.534-1.056-4.074-1.028c-1.54,0.028-2.85,0.413-3.927,1.154c-1.078,0.743-1.96,1.709-2.646,2.898
		c-0.687,1.19-1.183,2.499-1.491,3.927c-0.308,1.429-0.462,2.829-0.462,4.2c0,1.4,0.168,2.87,0.505,4.41
		c0.336,1.54,0.867,2.996,1.596,4.368c0.728,1.372,1.687,2.478,2.877,3.317C158.589,54.64,160.024,55.06,161.704,55.06z"/>
	<path fill="#CACACA" d="M201.94,57.496l-14.574-18.942c-0.309-0.447-0.638-0.902-0.987-1.364c-0.351-0.462-0.692-0.931-1.028-1.407
		h-0.042l0.084,14.658c0,0.756-0.008,1.484-0.021,2.184c-0.015,0.7-0.049,1.274-0.104,1.722c0.476-0.027,1.021-0.056,1.638-0.084
		c0.615-0.027,1.105-0.042,1.47-0.042v2.772h-8.946v-2.31c0.729-0.028,1.295-0.147,1.701-0.357s0.707-0.573,0.903-1.092
		c0.195-0.518,0.294-1.211,0.294-2.079l-0.042-17.472c0-0.673,0.014-1.316,0.042-1.933c0.027-0.615,0.056-1.119,0.084-1.512
		c-0.448,0.028-0.98,0.049-1.596,0.063c-0.616,0.015-1.106,0.036-1.471,0.063v-2.772h6.049l13.817,17.851
		c0.588,0.756,1.099,1.428,1.533,2.016c0.434,0.588,0.819,1.12,1.155,1.596h0.042V33.766c0-0.7,0.014-1.372,0.042-2.017
		c0.027-0.644,0.056-1.147,0.084-1.512c-0.448,0.028-0.98,0.049-1.597,0.063c-0.616,0.015-1.12,0.036-1.512,0.063v-2.772h8.988
		v2.311c-0.756,0.028-1.352,0.161-1.785,0.398c-0.435,0.238-0.735,0.651-0.903,1.239s-0.252,1.428-0.252,2.521l-0.042,23.436H201.94
		z"/>
</g>
<polygon fill="#CACACA" points="1.769,1.749 1.769,82.75 48.209,82.75 48.209,79.75 4.769,79.75 4.769,4.749 237.102,4.749 
	237.102,79.75 183.94,79.75 183.94,82.75 240.102,82.75 240.102,1.749 "/>
<g>
	<path fill="#CACACA" d="M69.727,86.366V71.778h-1.914v-0.594l3.169-0.859h0.396V85.53c0.727,0.285,1.034,0.375,1.585,0.375
		c2.156,0,3.674-1.871,3.674-4.512c0-2.398-1.078-3.895-2.838-3.895h-1.606v-0.727c1.122-0.373,1.65-0.461,2.244-0.461
		c2.398,0,4.093,2.045,4.093,4.928c0,3.367-2.267,5.59-5.721,5.59C71.839,86.829,71.025,86.696,69.727,86.366z"/>
	<path fill="#CACACA" d="M96.546,86.124l-1.474,0.463c-0.286,0.088-0.595,0.154-0.771,0.154c-0.682,0-1.078-0.484-1.078-1.299
		c0-0.066,0-0.133,0-0.221c-0.924,1.145-1.761,1.607-2.927,1.607c-1.518,0-2.64-1.057-2.64-2.531c0-1.121,0.726-2.047,1.782-2.287
		l3.762-0.859v-2.486c0-0.879-0.66-1.518-1.54-1.518c-0.439,0-0.726,0.066-1.364,0.373v1.057l-1.958,0.572
		c-0.154-0.264-0.176-0.375-0.176-0.615c0-1.277,1.474-2.223,3.477-2.223c1.936,0,3.212,0.967,3.212,2.42v6.777h1.694V86.124z
		 M93.201,82.032l-3.762,0.879v1.102c0,0.924,0.594,1.518,1.518,1.518c0.704,0,1.276-0.309,2.244-1.166V82.032z"/>
	<path fill="#CACACA" d="M110.075,86.542h-4.973v-0.814h1.672V71.778h-1.937v-0.594l3.169-0.859h0.418v15.402h1.65V86.542z
		 M115.84,86.542h-2.729l-4.511-5.412l3.938-3.74h-1.43v-0.814h4.378v0.814h-1.694l-3.41,3.256l4.203,5.082h1.254V86.542z"/>
	<path fill="#CACACA" d="M132.713,85.618c-1.65,0.947-2.42,1.211-3.696,1.211c-2.795,0-4.774-2.156-4.774-5.193
		c0-3.08,2.002-5.324,4.73-5.324c2.376,0,4.004,1.627,4.004,4.004v0.594h-6.931v0.242c0,2.75,1.452,4.664,3.543,4.664
		c0.88,0,1.474-0.219,2.706-1.012L132.713,85.618z M131.173,80.03V79.5c0-1.32-0.902-2.266-2.179-2.266
		c-1.606,0-2.729,1.078-2.926,2.795H131.173z"/>
	<path fill="#CACACA" d="M147.497,86.542h-5.435v-0.814h1.672v-7.92h-1.914v-0.594l3.168-0.859h0.396v2.465
		c1.584-2.023,2.156-2.508,2.948-2.508c0.264,0,0.484,0.066,0.616,0.197l0.682,0.594l-1.276,1.541
		c-0.439-0.418-0.748-0.617-0.968-0.617c-0.396,0-0.792,0.375-2.002,1.85v5.852h2.112V86.542z"/>
	<path fill="#CACACA" d="M167.055,77.389h-0.924l-3.719,9.658c-0.506,1.32-1.32,2.883-2.046,3.939
		c-0.198,0.264-0.484,0.66-0.88,1.188l-1.431-1.475c1.21-0.682,1.628-1.012,2.311-1.891c0.616-0.814,0.902-1.344,1.43-2.686
		l-3.564-8.734h-0.924v-0.814h4.269v0.814h-1.563l2.663,6.49l2.464-6.49h-1.474v-0.814h3.388V77.389z"/>
</g>
</svg>
